<svg width="12" height="15" viewBox="0 0 12 15" fill="none" xmlns="http://www.w3.org/2000/svg">
<path d="M1.667 14.7727C1.18505 14.7727 0.793701 14.3814 0.793701 13.8994V4.29317C0.793701 3.81122 1.18505 3.41988 1.667 3.41988H3.41795C3.43896 1.96939 4.60045 0.799995 6.03347 0.799995C7.46649 0.799995 8.62797 1.96939 8.64898 3.41988H10.3999C10.8819 3.41988 11.2732 3.81122 11.2732 4.29317V13.8994C11.2732 14.3814 10.8819 14.7727 10.3999 14.7727H1.667ZM10.3999 4.29317H1.667V13.8994H10.3999V4.29317ZM6.03347 1.67329C5.08431 1.67329 4.31226 2.45325 4.29125 3.41988H7.77569C7.75468 2.45325 6.98263 1.67329 6.03347 1.67329ZM4.72353 6.03976C4.48255 6.03976 4.28688 5.84409 4.28688 5.60311C4.28688 5.36214 4.48255 5.16647 4.72353 5.16647H7.34341C7.58438 5.16647 7.78006 5.36214 7.78006 5.60311C7.78006 5.84409 7.58438 6.03976 7.34341 6.03976H4.72353Z" fill="white"/>
</svg>
