<svg width="37" height="37" viewBox="0 0 37 37" fill="none" xmlns="http://www.w3.org/2000/svg">
<path d="M11.0189 1.80622C11.0189 1.80622 11.5747 1.5685 12.6863 1.09305C13.798 0.617607 15.5725 0.379883 18.01 0.379883C20.4475 0.379883 22.7779 0.855331 25.0011 1.80622C27.2243 2.75711 29.1395 4.03613 30.7466 5.64328C32.3538 7.25042 33.6328 9.1656 34.5837 11.3888C35.5346 13.612 36.01 15.9424 36.01 18.3799C36.01 20.8174 35.5346 23.1477 34.5837 25.371C33.6328 27.5942 32.3538 29.5093 30.7466 31.1165C29.1395 32.7236 27.2243 34.0027 25.0011 34.9535C22.7779 35.9044 20.4475 36.3799 18.01 36.3799C15.5725 36.3799 13.2422 35.9044 11.0189 34.9535C8.79572 34.0027 6.88055 32.7236 5.2734 31.1165C3.66626 29.5093 2.38724 27.5942 1.43635 25.371C0.485456 23.1477 0.0100098 20.8174 0.0100098 18.3799C0.0100098 15.9424 0.485456 13.612 1.43635 11.3888C2.38724 9.1656 3.66626 7.25042 5.2734 5.64328C6.88055 4.03613 8.79572 2.75711 11.0189 1.80622ZM25.2622 4.75935C22.9721 3.55399 20.5547 2.95131 18.01 2.95131C15.4654 2.95131 13.048 3.55399 10.7578 4.75935L14.6551 8.65667C15.7533 8.28167 16.8716 8.09417 18.01 8.09417C19.1484 8.09417 20.2667 8.28167 21.3649 8.65667L25.2622 4.75935ZM4.38947 25.6321L8.2868 21.7348C7.9118 20.6366 7.7243 19.5183 7.7243 18.3799C7.7243 17.2415 7.9118 16.1232 8.2868 15.025L4.38947 11.1277C3.18412 13.4178 2.58144 15.8352 2.58144 18.3799C2.58144 20.9245 3.18412 23.3419 4.38947 25.6321ZM10.7578 32.0004C13.048 33.2058 15.4654 33.8085 18.01 33.8085C20.5547 33.8085 22.9721 33.2058 25.2622 32.0004L21.3649 28.1031C20.2667 28.4781 19.1484 28.6656 18.01 28.6656C16.8716 28.6656 15.7533 28.4781 14.6551 28.1031L10.7578 32.0004ZM12.5558 23.8341C12.5558 23.8341 12.9324 24.2108 13.6858 24.9641C14.4391 25.7175 15.8805 26.0942 18.01 26.0942C20.1395 26.0942 21.9576 25.3408 23.4643 23.8341C24.9709 22.3274 25.7243 20.5093 25.7243 18.3799C25.7243 16.2504 24.9709 14.4323 23.4643 12.9256C21.9576 11.4189 20.1395 10.6656 18.01 10.6656C15.8805 10.6656 14.0625 11.4189 12.5558 12.9256C11.0491 14.4323 10.2957 16.2504 10.2957 18.3799C10.2957 20.5093 11.0491 22.3274 12.5558 23.8341ZM27.7332 21.7348L31.6305 25.6321C32.8359 23.3419 33.4386 20.9245 33.4386 18.3799C33.4386 15.8352 32.8359 13.4178 31.6305 11.1277L27.7332 15.025C28.1082 16.1232 28.2957 17.2415 28.2957 18.3799C28.2957 19.5183 28.1082 20.6366 27.7332 21.7348Z" fill="#CA1515"/>
</svg>
