<svg width="42" height="37" viewBox="0 0 42 37" fill="none" xmlns="http://www.w3.org/2000/svg">
<g clip-path="url(#clip0_1_1183)">
<path d="M8.70721 24.5072C8.70721 24.5072 8.86457 24.3498 9.1793 24.0351C9.49404 23.7204 9.6514 23.121 9.6514 22.2371C9.6514 21.3532 9.33667 20.5965 8.70721 19.967C8.07774 19.3375 7.32104 19.0228 6.43712 19.0228C5.55319 19.0228 4.79649 19.3375 4.16703 19.967C3.53756 20.5965 3.22283 21.3532 3.22283 22.2371C3.22283 23.121 3.53756 23.8777 4.16703 24.5072C4.79649 25.1366 5.55319 25.4514 6.43712 25.4514C7.32104 25.4514 8.07774 25.1366 8.70721 24.5072ZM10.3746 15.8085H30.7853L28.9974 8.63665C28.9706 8.52951 28.8768 8.41232 28.7161 8.28509C28.5554 8.15785 28.4148 8.09424 28.2943 8.09424H12.8657C12.7452 8.09424 12.6045 8.15785 12.4438 8.28509C12.2831 8.41232 12.1893 8.52951 12.1626 8.63665L10.3746 15.8085ZM36.9929 24.5072C36.9929 24.5072 37.1503 24.3498 37.465 24.0351C37.7798 23.7204 37.9371 23.121 37.9371 22.2371C37.9371 21.3532 37.6224 20.5965 36.9929 19.967C36.3635 19.3375 35.6068 19.0228 34.7228 19.0228C33.8389 19.0228 33.0822 19.3375 32.4527 19.967C31.8233 20.5965 31.5085 21.3532 31.5085 22.2371C31.5085 23.121 31.8233 23.8777 32.4527 24.5072C33.0822 25.1366 33.8389 25.4514 34.7228 25.4514C35.6068 25.4514 36.3635 25.1366 36.9929 24.5072ZM41.1514 20.3085V28.0228C41.1514 28.2103 41.0911 28.3643 40.9706 28.4849C40.8501 28.6054 40.696 28.6657 40.5085 28.6657H38.58V31.2371C38.58 32.3085 38.205 33.2192 37.455 33.9692C36.705 34.7192 35.7943 35.0942 34.7228 35.0942C33.6514 35.0942 32.7407 34.7192 31.9907 33.9692C31.2407 33.2192 30.8657 32.3085 30.8657 31.2371V28.6657H10.2943V31.2371C10.2943 32.3085 9.91926 33.2192 9.16926 33.9692C8.41926 34.7192 7.50854 35.0942 6.43712 35.0942C5.36569 35.0942 4.45497 34.7192 3.70497 33.9692C2.95497 33.2192 2.57997 32.3085 2.57997 31.2371V28.6657H0.651402C0.463902 28.6657 0.309884 28.6054 0.189348 28.4849C0.0688128 28.3643 0.00854492 28.2103 0.00854492 28.0228V20.3085C0.00854492 19.063 0.447161 18.0016 1.32439 17.1244C2.20163 16.2471 3.26301 15.8085 4.50854 15.8085H5.07104L7.18042 7.39111C7.48846 6.13218 8.18488 5.0775 9.26971 4.22705C10.3545 3.3766 11.5532 2.95138 12.8657 2.95138H28.2943C29.6068 2.95138 30.8054 3.3766 31.8902 4.22705C32.9751 5.0775 33.6715 6.13218 33.9795 7.39111L36.0889 15.8085H36.6514C37.8969 15.8085 38.9583 16.2471 39.8356 17.1244C40.7128 18.0016 41.1514 19.063 41.1514 20.3085Z" fill="#CA1515"/>
</g>
<defs>
<clipPath id="clip0_1_1183">
<rect width="41.16" height="36" fill="white" transform="matrix(1 0 0 -1 0 36.3799)"/>
</clipPath>
</defs>
</svg>
