<svg width="40" height="27" viewBox="0 0 40 27" fill="none" xmlns="http://www.w3.org/2000/svg">
<path d="M15.9328 18.5225H23.6471V16.594H21.0757V7.59396H18.7855L15.8123 10.3462L17.3592 11.9533C17.9217 11.4578 18.29 11.0761 18.4641 10.8082H18.5043V16.594H15.9328V18.5225ZM25.7967 10.527C25.7967 10.527 25.867 10.7681 26.0076 11.2502C26.1482 11.7324 26.2186 12.4422 26.2186 13.3797C26.2186 14.3172 26.0779 15.2681 25.7967 16.2324C25.5154 17.1966 25.117 18.094 24.6014 18.9243C24.0857 19.7547 23.4061 20.431 22.5623 20.9533C21.7186 21.4757 20.7945 21.7368 19.79 21.7368C18.7855 21.7368 17.8614 21.4757 17.0177 20.9533C16.1739 20.431 15.4942 19.7547 14.9786 18.9243C14.463 18.094 14.0645 17.1966 13.7833 16.2324C13.502 15.2681 13.3614 14.3172 13.3614 13.3797C13.3614 12.4422 13.502 11.4913 13.7833 10.527C14.0645 9.56271 14.463 8.66539 14.9786 7.83503C15.4942 7.00467 16.1739 6.32833 17.0177 5.80601C17.8614 5.28369 18.7855 5.02253 19.79 5.02253C20.7945 5.02253 21.7186 5.28369 22.5623 5.80601C23.4061 6.32833 24.0857 7.00467 24.6014 7.83503C25.117 8.66539 25.5154 9.56271 25.7967 10.527ZM36.5043 18.5225V8.23682C35.0846 8.23682 33.8726 7.73458 32.8681 6.73012C31.8636 5.72566 31.3614 4.5136 31.3614 3.09396H8.21856C8.21856 4.5136 7.71633 5.72566 6.71186 6.73012C5.7074 7.73458 4.49534 8.23682 3.0757 8.23682V18.5225C4.49534 18.5225 5.7074 19.0248 6.71186 20.0292C7.71633 21.0337 8.21856 22.2457 8.21856 23.6654H31.3614C31.3614 22.2457 31.8636 21.0337 32.8681 20.0292C33.8726 19.0248 35.0846 18.5225 36.5043 18.5225ZM39.0757 1.80824V24.9511C39.0757 25.2993 38.9485 25.6007 38.694 25.8551C38.4395 26.1096 38.1382 26.2368 37.79 26.2368H1.78999C1.44177 26.2368 1.14043 26.1096 0.885969 25.8551C0.631505 25.6007 0.504272 25.2993 0.504272 24.9511V1.80824C0.504272 1.46003 0.631505 1.15869 0.885969 0.904228C1.14043 0.649763 1.44177 0.522532 1.78999 0.522532H37.79C38.1382 0.522532 38.4395 0.649763 38.694 0.904228C38.9485 1.15869 39.0757 1.46003 39.0757 1.80824Z" fill="#CA1515"/>
</svg>
