<svg width="34" height="37" viewBox="0 0 34 37" fill="none" xmlns="http://www.w3.org/2000/svg">
<g clip-path="url(#clip0_1_1201)">
<path d="M33.9342 18.1788C33.9342 20.402 33.5324 22.5047 32.7288 24.4868L32.327 25.4712L28.6105 26.1341C28.3159 27.2457 27.7099 28.1598 26.7924 28.8763C25.875 29.5928 24.827 29.9511 23.6485 29.9511V30.594C23.6485 30.7815 23.5882 30.9355 23.4677 31.056C23.3471 31.1765 23.1931 31.2368 23.0056 31.2368H21.7199C21.5324 31.2368 21.3784 31.1765 21.2578 31.056C21.1373 30.9355 21.077 30.7815 21.077 30.594V19.0225C21.077 18.835 21.1373 18.681 21.2578 18.5605C21.3784 18.4399 21.5324 18.3797 21.7199 18.3797H23.0056C23.1931 18.3797 23.3471 18.4399 23.4677 18.5605C23.5882 18.681 23.6485 18.835 23.6485 19.0225V19.6654C24.5994 19.6654 25.4699 19.9031 26.2601 20.3786C27.0503 20.854 27.673 21.4935 28.1284 22.2971L29.4945 22.056C29.8828 20.7837 30.077 19.4913 30.077 18.1788C30.077 16.1966 29.4878 14.3283 28.3092 12.5739C27.1306 10.8194 25.5469 9.41985 23.5581 8.37521C21.5692 7.33057 19.4565 6.80824 17.2199 6.80824C14.9833 6.80824 12.8706 7.33057 10.8817 8.37521C8.89289 9.41985 7.30919 10.8194 6.13062 12.5739C4.95204 14.3283 4.36276 16.1966 4.36276 18.1788C4.36276 19.4913 4.55695 20.7837 4.94535 22.056L6.31142 22.2971C6.76678 21.4935 7.38954 20.854 8.17972 20.3786C8.9699 19.9031 9.84044 19.6654 10.7913 19.6654V19.0225C10.7913 18.835 10.8516 18.681 10.9721 18.5605C11.0927 18.4399 11.2467 18.3797 11.4342 18.3797H12.7199C12.9074 18.3797 13.0614 18.4399 13.182 18.5605C13.3025 18.681 13.3628 18.835 13.3628 19.0225V30.594C13.3628 30.7815 13.3025 30.9355 13.182 31.056C13.0614 31.1765 12.9074 31.2368 12.7199 31.2368H11.4342C11.2467 31.2368 11.0927 31.1765 10.9721 31.056C10.8516 30.9355 10.7913 30.7815 10.7913 30.594V29.9511C9.61276 29.9511 8.56477 29.5928 7.64736 28.8763C6.72995 28.1598 6.12392 27.2457 5.82928 26.1341L2.11276 25.4712L1.71097 24.4868C0.907401 22.5047 0.505615 20.402 0.505615 18.1788C0.505615 16.1565 0.954276 14.2078 1.8516 12.3328C2.74892 10.4578 3.94758 8.83392 5.44758 7.46115C6.94758 6.08838 8.72883 4.99351 10.7913 4.17655C12.8538 3.35958 14.9967 2.9511 17.2199 2.9511C19.4431 2.9511 21.586 3.35958 23.6485 4.17655C25.711 4.99351 27.4922 6.08838 28.9922 7.46115C30.4922 8.83392 31.6909 10.4578 32.5882 12.3328C33.4855 14.2078 33.9342 16.1565 33.9342 18.1788Z" fill="#CA1515"/>
</g>
<defs>
<clipPath id="clip0_1_1201">
<rect width="33.44" height="36" fill="white" transform="matrix(1 0 0 -1 0.5 36.3799)"/>
</clipPath>
</defs>
</svg>
