<svg width="14" height="14" viewBox="0 0 14 14" fill="none" xmlns="http://www.w3.org/2000/svg">
<path d="M8.11527 8.20515C8.11527 8.20515 8.2199 8.10052 8.42916 7.89125C8.63843 7.68199 8.74306 7.2816 8.74306 6.69008C8.74306 6.09856 8.5338 5.59354 8.11527 5.17501C7.69674 4.75649 7.19172 4.54722 6.6002 4.54722C6.00868 4.54722 5.50366 4.75649 5.08514 5.17501C4.66661 5.59354 4.45735 6.09856 4.45735 6.69008C4.45735 7.2816 4.66661 7.78662 5.08514 8.20515C5.50366 8.62367 6.00868 8.83294 6.6002 8.83294C7.19172 8.83294 7.69674 8.62367 8.11527 8.20515ZM8.93558 4.3547C8.93558 4.3547 9.09602 4.51514 9.41689 4.83601C9.73776 5.15688 9.89819 5.7749 9.89819 6.69008C9.89819 7.60526 9.57732 8.38372 8.93558 9.02546C8.29384 9.6672 7.51538 9.98807 6.6002 9.98807C5.68502 9.98807 4.90656 9.6672 4.26482 9.02546C3.62308 8.38372 3.30221 7.60526 3.30221 6.69008C3.30221 5.7749 3.62308 4.99644 4.26482 4.3547C4.90656 3.71296 5.68502 3.39209 6.6002 3.39209C7.51538 3.39209 8.29384 3.71296 8.93558 4.3547ZM10.5762 2.71408C10.5762 2.71408 10.6139 2.75174 10.6892 2.82708C10.7645 2.90241 10.8022 3.04611 10.8022 3.25816C10.8022 3.47022 10.7269 3.65158 10.5762 3.80225C10.4255 3.95292 10.2442 4.02825 10.0321 4.02825C9.82007 4.02825 9.63871 3.95292 9.48804 3.80225C9.33737 3.65158 9.26203 3.47022 9.26203 3.25816C9.26203 3.04611 9.33737 2.86475 9.48804 2.71408C9.63871 2.56341 9.82007 2.48807 10.0321 2.48807C10.2442 2.48807 10.4255 2.56341 10.5762 2.71408ZM7.24055 1.41246C7.24055 1.41246 7.14359 1.41316 6.94967 1.41455C6.75575 1.41595 6.63926 1.41664 6.6002 1.41664C6.56114 1.41664 6.34769 1.41525 5.95986 1.41246C5.57202 1.40967 5.27766 1.40967 5.07676 1.41246C4.87587 1.41525 4.60662 1.42362 4.26901 1.43757C3.9314 1.45152 3.64401 1.47942 3.40684 1.52128C3.16968 1.56313 2.97018 1.61475 2.80835 1.67613C2.52933 1.78774 2.2838 1.94957 2.07174 2.16162C1.85969 2.37368 1.69786 2.61921 1.58625 2.89823C1.52487 3.06006 1.47325 3.25956 1.4314 3.49672C1.38954 3.73389 1.36164 4.02128 1.34769 4.35889C1.33374 4.6965 1.32537 4.96575 1.32258 5.16664C1.31979 5.36754 1.31979 5.6619 1.32258 6.04974C1.32537 6.43757 1.32676 6.65102 1.32676 6.69008C1.32676 6.72914 1.32537 6.94259 1.32258 7.33043C1.31979 7.71826 1.31979 8.01263 1.32258 8.21352C1.32537 8.41441 1.33374 8.68366 1.34769 9.02128C1.36164 9.35889 1.38954 9.64628 1.4314 9.88344C1.47325 10.1206 1.52487 10.3201 1.58625 10.4819C1.69786 10.761 1.85969 11.0065 2.07174 11.2185C2.2838 11.4306 2.52933 11.5924 2.80835 11.704C2.97018 11.7654 3.16968 11.817 3.40684 11.8589C3.64401 11.9007 3.9314 11.9286 4.26901 11.9426C4.60662 11.9565 4.87587 11.9649 5.07676 11.9677C5.27766 11.9705 5.57202 11.9705 5.95986 11.9677C6.34769 11.9649 6.56114 11.9635 6.6002 11.9635C6.63926 11.9635 6.85271 11.9649 7.24055 11.9677C7.62838 11.9705 7.92275 11.9705 8.12364 11.9677C8.32453 11.9649 8.59378 11.9565 8.9314 11.9426C9.26901 11.9286 9.5564 11.9007 9.79356 11.8589C10.0307 11.817 10.2302 11.7654 10.3921 11.704C10.6711 11.5924 10.9166 11.4306 11.1287 11.2185C11.3407 11.0065 11.5025 10.761 11.6142 10.4819C11.6755 10.3201 11.7272 10.1206 11.769 9.88344C11.8109 9.64628 11.8388 9.35889 11.8527 9.02128C11.8667 8.68366 11.875 8.41441 11.8778 8.21352C11.8806 8.01263 11.8806 7.71826 11.8778 7.33043C11.875 6.94259 11.8736 6.72914 11.8736 6.69008C11.8736 6.65102 11.875 6.43757 11.8778 6.04974C11.8806 5.6619 11.8806 5.36754 11.8778 5.16664C11.875 4.96575 11.8667 4.6965 11.8527 4.35889C11.8388 4.02128 11.8109 3.73389 11.769 3.49672C11.7272 3.25956 11.6755 3.06006 11.6142 2.89823C11.5025 2.61921 11.3407 2.37368 11.1287 2.16162C10.9166 1.94957 10.6711 1.78774 10.3921 1.67613C10.2302 1.61475 10.0307 1.56313 9.79356 1.52128C9.5564 1.47942 9.26901 1.45152 8.9314 1.43757C8.59378 1.42362 8.32453 1.41525 8.12364 1.41246C7.92275 1.40967 7.62838 1.40967 7.24055 1.41246ZM12.9869 4.03662C13.0148 4.52769 13.0288 5.41218 13.0288 6.69008C13.0288 7.96798 13.0148 8.85247 12.9869 9.34354C12.9311 10.5043 12.5851 11.4027 11.949 12.0389C11.3128 12.675 10.4144 13.021 9.25366 13.0768C8.76259 13.1047 7.8781 13.1187 6.6002 13.1187C5.3223 13.1187 4.43781 13.1047 3.94674 13.0768C2.78603 13.021 1.88759 12.675 1.25143 12.0389C0.615269 11.4027 0.269287 10.5043 0.213484 9.34354C0.185582 8.85247 0.171631 7.96798 0.171631 6.69008C0.171631 5.41218 0.185582 4.52769 0.213484 4.03662C0.269287 2.87591 0.615269 1.97747 1.25143 1.34131C1.88759 0.705148 2.78603 0.359166 3.94674 0.303363C4.43781 0.275461 5.3223 0.26151 6.6002 0.26151C7.8781 0.26151 8.76259 0.275461 9.25366 0.303363C10.4144 0.359166 11.3128 0.705148 11.949 1.34131C12.5851 1.97747 12.9311 2.87591 12.9869 4.03662Z" fill="#111111"/>
</svg>
