<svg width="19" height="16" viewBox="0 0 19 16" fill="none" xmlns="http://www.w3.org/2000/svg">
<path d="M18.0232 5.5663H18.0323C18.0323 5.58314 18.0288 5.59787 18.0288 5.61577C18.0288 5.62805 18.0323 5.64068 18.0323 5.65402C18.0323 5.73472 18.0119 5.79647 18.0077 5.87507C17.7481 12.8895 8.97896 15.7649 8.97896 15.7649C8.97896 15.7649 0.336856 12.8859 0.089839 5.86384C0.0863302 5.78981 0.0673828 5.73156 0.0673828 5.65402C0.0673828 5.64068 0.0708916 5.62805 0.0708916 5.61577C0.0708916 5.59893 0.0673828 5.58314 0.0673828 5.5663H0.0765056C0.123523 2.81121 2.35896 0.355418 5.12001 0.355418C6.71651 0.355418 8.12352 1.19086 9.04984 2.41682C9.97615 1.19086 11.3832 0.355418 12.9797 0.355418C15.7407 0.355418 17.9762 2.81121 18.0232 5.5663ZM16.886 5.83366C16.8891 5.76279 16.8962 5.70454 16.9039 5.64945C16.9018 5.62805 16.9004 5.607 16.9004 5.5856C16.8625 3.35893 15.067 1.47823 12.9797 1.47823C11.8277 1.47823 10.7218 2.06665 9.94598 3.09402C9.7337 3.37472 9.40247 3.53963 9.04984 3.53963C8.69721 3.53963 8.36598 3.37472 8.1537 3.09402C7.37791 2.06665 6.27194 1.47823 5.12001 1.47823C3.03265 1.47823 1.23721 3.35893 1.19931 5.5856C1.19791 5.607 1.19686 5.62805 1.1958 5.6484C1.20352 5.70454 1.20914 5.75612 1.21159 5.81226C1.40142 11.2344 7.44317 13.9617 8.98142 14.5681C10.533 13.9628 16.687 11.2231 16.886 5.83366Z" fill="#666666"/>
</svg>
