<svg width="14" height="12" viewBox="0 0 14 12" fill="none" xmlns="http://www.w3.org/2000/svg">
<path d="M7.34375 11.8594C7.25 11.9531 7.13542 12 7 12C6.86458 12 6.75 11.9531 6.65625 11.8594L1.78125 7.15625C1.72917 7.11458 1.65755 7.04688 1.56641 6.95312C1.47526 6.85938 1.33073 6.6888 1.13281 6.44141C0.934896 6.19401 0.757812 5.9401 0.601562 5.67969C0.445312 5.41927 0.30599 5.10417 0.183594 4.73438C0.0611979 4.36458 0 4.00521 0 3.65625C0 2.51042 0.330729 1.61458 0.992188 0.96875C1.65365 0.322917 2.56771 0 3.73438 0C4.05729 0 4.38672 0.0559896 4.72266 0.167969C5.05859 0.279948 5.37109 0.43099 5.66016 0.621094C5.94922 0.811198 6.19792 0.989583 6.40625 1.15625C6.61458 1.32292 6.8125 1.5 7 1.6875C7.1875 1.5 7.38542 1.32292 7.59375 1.15625C7.80208 0.989583 8.05078 0.811198 8.33984 0.621094C8.62891 0.43099 8.94141 0.279948 9.27734 0.167969C9.61328 0.0559896 9.94271 0 10.2656 0C11.4323 0 12.3464 0.322917 13.0078 0.96875C13.6693 1.61458 14 2.51042 14 3.65625C14 4.80729 13.4036 5.97917 12.2109 7.17188L7.34375 11.8594Z" fill="#CA1515"/>
</svg>
