<svg width="14" height="14" viewBox="0 0 14 14" fill="none" xmlns="http://www.w3.org/2000/svg">
<path d="M12.3766 3.46324C12.3766 3.46324 12.5203 3.70947 12.8077 4.20194C13.095 4.69441 13.2387 5.52379 13.2387 6.69008C13.2387 7.85638 12.9513 8.93199 12.3766 9.91692C11.8018 10.9019 11.0219 11.6817 10.037 12.2565C9.05207 12.8313 7.97646 13.1187 6.81016 13.1187C6.19074 13.1187 5.58248 13.0294 4.98539 12.8508C5.31463 12.3318 5.53226 11.8742 5.63829 11.478C5.68851 11.2883 5.83918 10.6996 6.0903 9.71184C6.2019 9.92948 6.40559 10.1178 6.70135 10.2769C6.9971 10.4359 7.31519 10.5154 7.65559 10.5154C8.33081 10.5154 8.93349 10.3243 9.46362 9.94203C9.99376 9.55978 10.4039 9.03383 10.6941 8.36419C10.9843 7.69455 11.1294 6.9412 11.1294 6.10414C11.1294 5.46798 10.9633 4.87088 10.6313 4.31285C10.2993 3.75481 9.81798 3.30001 9.1874 2.94845C8.55681 2.59689 7.84532 2.42111 7.05291 2.42111C6.46697 2.42111 5.9201 2.50202 5.41228 2.66385C4.90447 2.82568 4.47339 3.04053 4.11904 3.30838C3.76468 3.57624 3.46055 3.88456 3.20665 4.23333C2.95274 4.5821 2.7658 4.94343 2.64582 5.31731C2.52584 5.6912 2.46586 6.06508 2.46586 6.43897C2.46586 7.01932 2.57746 7.52992 2.80068 7.97077C3.02389 8.41162 3.35034 8.72133 3.78003 8.8999C3.94744 8.96687 4.05347 8.91106 4.09811 8.73249C4.10927 8.69343 4.13159 8.60693 4.16507 8.47301C4.19856 8.33908 4.22088 8.25537 4.23204 8.22189C4.26552 8.09354 4.23483 7.97356 4.13996 7.86196C3.85536 7.52155 3.71306 7.10024 3.71306 6.59801C3.71306 5.75537 4.00464 5.03132 4.58779 4.42585C5.17093 3.82038 5.93405 3.51765 6.87713 3.51765C7.71976 3.51765 8.37685 3.74644 8.84839 4.20403C9.31993 4.66162 9.5557 5.25593 9.5557 5.98696C9.5557 6.93562 9.36457 7.74198 8.98232 8.40604C8.60006 9.0701 8.11039 9.40213 7.51329 9.40213C7.17289 9.40213 6.89945 9.28076 6.69298 9.03802C6.4865 8.79527 6.42233 8.5037 6.50045 8.1633C6.5451 7.96798 6.61904 7.7071 6.72227 7.38065C6.82551 7.0542 6.90921 6.76681 6.97339 6.51849C7.03756 6.27016 7.06965 6.0595 7.06965 5.88651C7.06965 5.60749 6.99431 5.37591 6.84365 5.19176C6.69298 5.0076 6.47813 4.91553 6.19911 4.91553C5.85313 4.91553 5.56016 5.07457 5.32021 5.39265C5.08025 5.71073 4.96027 6.10693 4.96027 6.58126C4.96027 6.98863 5.03003 7.32903 5.16954 7.60247L4.34086 11.1014C4.24599 11.492 4.20972 11.9858 4.23204 12.5829C3.08248 12.0751 2.15336 11.2911 1.44465 10.2308C0.735944 9.17055 0.381592 7.9903 0.381592 6.69008C0.381592 5.52379 0.66898 4.44817 1.24376 3.46324C1.81853 2.47831 2.59839 1.69845 3.58332 1.12368C4.56825 0.548898 5.64387 0.26151 6.81016 0.26151C7.97646 0.26151 9.05207 0.548898 10.037 1.12368C11.0219 1.69845 11.8018 2.47831 12.3766 3.46324Z" fill="#111111"/>
</svg>
