<svg width="14" height="12" viewBox="0 0 14 12" fill="none" xmlns="http://www.w3.org/2000/svg">
<path d="M13.4276 1.60491C13.0537 2.15179 12.6017 2.61775 12.0715 3.00279C12.0771 3.08092 12.0799 3.1981 12.0799 3.35435C12.0799 4.0798 11.9739 4.80385 11.7618 5.52651C11.5498 6.24916 11.2275 6.94252 10.795 7.60658C10.3625 8.27065 9.84776 8.85798 9.25066 9.36858C8.65356 9.87919 7.9337 10.2866 7.09106 10.5907C6.24843 10.8948 5.3472 11.0469 4.38738 11.0469C2.8751 11.0469 1.49118 10.6423 0.235596 9.83315C0.430908 9.85547 0.648542 9.86663 0.888497 9.86663C2.14408 9.86663 3.26294 9.48158 4.24508 8.7115C3.65914 8.70033 3.13459 8.52037 2.67142 8.1716C2.20825 7.82282 1.89017 7.37779 1.71718 6.8365C1.90133 6.8644 2.07153 6.87835 2.22778 6.87835C2.46774 6.87835 2.7049 6.84766 2.93928 6.78627C2.31428 6.65792 1.7967 6.34682 1.38654 5.85296C0.976388 5.3591 0.77131 4.78571 0.77131 4.13281V4.09933C1.15077 4.31138 1.55814 4.42578 1.99341 4.44252C1.6251 4.19699 1.33214 3.87612 1.1145 3.47991C0.896868 3.08371 0.788051 2.65402 0.788051 2.19085C0.788051 1.69978 0.910819 1.24498 1.15635 0.826451C1.83158 1.65792 2.65329 2.32338 3.62148 2.82282C4.58967 3.32227 5.62622 3.59989 6.73113 3.65569C6.68649 3.44364 6.66417 3.23717 6.66417 3.03627C6.66417 2.2885 6.92784 1.65095 7.45518 1.12361C7.98253 0.596261 8.62008 0.33259 9.36785 0.33259C10.1491 0.33259 10.8076 0.617188 11.3433 1.18638C11.9516 1.0692 12.5235 0.851563 13.0593 0.533482C12.8528 1.17522 12.4566 1.67188 11.8706 2.02344C12.3896 1.96763 12.9086 1.82813 13.4276 1.60491Z" fill="#111111"/>
</svg>
