<svg width="16" height="14" viewBox="0 0 16 14" fill="none" xmlns="http://www.w3.org/2000/svg">
<g filter="url(#filter0_d_1_1244)">
<path d="M6.85128 7.63191L10.9026 5.53927L6.85128 3.42153V7.63191ZM8.39983 0.416504C9.33733 0.416504 10.2427 0.42906 11.1161 0.454172C11.9894 0.479283 12.6297 0.50579 13.0371 0.533692L13.6482 0.567174C13.6537 0.567174 13.7012 0.571359 13.7905 0.57973C13.8797 0.5881 13.9439 0.596471 13.983 0.604841C14.022 0.613212 14.0876 0.625768 14.1797 0.642509C14.2718 0.65925 14.3513 0.681571 14.4182 0.709473C14.4852 0.737375 14.5633 0.773647 14.6526 0.81829C14.7419 0.862933 14.8284 0.917341 14.9121 0.981515C14.9958 1.04569 15.0767 1.11963 15.1549 1.20333C15.1883 1.23682 15.2316 1.28844 15.2846 1.35819C15.3376 1.42794 15.4185 1.59117 15.5273 1.84787C15.6362 2.10456 15.7101 2.38637 15.7492 2.69329C15.7938 3.05043 15.8287 3.43129 15.8538 3.83587C15.8789 4.24044 15.8943 4.55713 15.8998 4.78592V5.12075V6.25914C15.9054 7.06829 15.8552 7.87744 15.7492 8.68659C15.7101 8.99351 15.6403 9.27114 15.5399 9.51946C15.4395 9.76779 15.3502 9.93938 15.272 10.0342L15.1549 10.1765C15.0767 10.2603 14.9958 10.3342 14.9121 10.3984C14.8284 10.4625 14.7419 10.5156 14.6526 10.5574C14.5633 10.5993 14.4852 10.6341 14.4182 10.662C14.3513 10.6899 14.2718 10.7123 14.1797 10.729C14.0876 10.7457 14.0206 10.7583 13.9788 10.7667C13.9369 10.775 13.8728 10.7834 13.7863 10.7918C13.6998 10.8002 13.6537 10.8043 13.6482 10.8043C12.2475 10.9104 10.498 10.9634 8.39983 10.9634C7.2447 10.9522 6.24163 10.9341 5.39062 10.909C4.53962 10.8839 3.98019 10.8629 3.71233 10.8462L3.30218 10.8127L3.00084 10.7792C2.79994 10.7513 2.64788 10.7234 2.54464 10.6955C2.44141 10.6676 2.29911 10.609 2.11775 10.5197C1.93638 10.4305 1.77874 10.3161 1.64481 10.1765C1.61133 10.1431 1.56808 10.0914 1.51507 10.0217C1.46205 9.95194 1.38114 9.78871 1.27232 9.53202C1.1635 9.27532 1.08956 8.99351 1.0505 8.68659C1.00586 8.32945 0.970982 7.94859 0.945871 7.54402C0.920759 7.13944 0.905413 6.82275 0.899833 6.59396V6.25914V5.12075C0.894252 4.31159 0.944475 3.50244 1.0505 2.69329C1.08956 2.38637 1.15932 2.10875 1.25977 1.86042C1.36021 1.6121 1.4495 1.4405 1.52762 1.34563L1.64481 1.20333C1.72294 1.11963 1.80385 1.04569 1.88756 0.981515C1.97126 0.917341 2.05776 0.862933 2.14704 0.81829C2.23633 0.773647 2.31445 0.737375 2.38142 0.709473C2.44838 0.681571 2.5279 0.65925 2.61998 0.642509C2.71205 0.625768 2.77762 0.613212 2.81669 0.604841C2.85575 0.596471 2.91992 0.5881 3.00921 0.57973C3.09849 0.571359 3.14593 0.567174 3.15151 0.567174C4.55218 0.466727 6.30162 0.416504 8.39983 0.416504Z" fill="#111111"/>
</g>
<defs>
<filter id="filter0_d_1_1244" x="-3.10059" y="0.416504" width="23.0007" height="18.5469" filterUnits="userSpaceOnUse" color-interpolation-filters="sRGB">
<feFlood flood-opacity="0" result="BackgroundImageFix"/>
<feColorMatrix in="SourceAlpha" type="matrix" values="0 0 0 0 0 0 0 0 0 0 0 0 0 0 0 0 0 0 127 0" result="hardAlpha"/>
<feOffset dy="4"/>
<feGaussianBlur stdDeviation="2"/>
<feComposite in2="hardAlpha" operator="out"/>
<feColorMatrix type="matrix" values="0 0 0 0 0 0 0 0 0 0 0 0 0 0 0 0 0 0 0.25 0"/>
<feBlend mode="normal" in2="BackgroundImageFix" result="effect1_dropShadow_1_1244"/>
<feBlend mode="normal" in="SourceGraphic" in2="effect1_dropShadow_1_1244" result="shape"/>
</filter>
</defs>
</svg>
